<?xml version="1.0" encoding="UTF-8" standalone="no"?>
<svg
   xmlns:dc="http://purl.org/dc/elements/1.1/"
   xmlns:cc="http://creativecommons.org/ns#"
   xmlns:rdf="http://www.w3.org/1999/02/22-rdf-syntax-ns#"
   xmlns:svg="http://www.w3.org/2000/svg"
   xmlns="http://www.w3.org/2000/svg"
   viewBox="0 0 56.340935 56.340973"
   height="56.340973"
   width="56.340935"
   xml:space="preserve"
   id="svg2"
   version="1.1"><metadata
     id="metadata8"><rdf:RDF><cc:Work
         rdf:about=""><dc:format>image/svg+xml</dc:format><dc:type
           rdf:resource="http://purl.org/dc/dcmitype/StillImage" /></cc:Work></rdf:RDF></metadata><defs
     id="defs6"><clipPath
       id="clipPath14"
       clipPathUnits="userSpaceOnUse"><path
         id="path12"
         d="M 0,0 H 504 V 133.493 H 0 Z" /></clipPath><clipPath
       id="clipPath24"
       clipPathUnits="userSpaceOnUse"><path
         id="path22"
         d="M 0,0 H 504 V 133.493 H 0 Z" /></clipPath><clipPath
       id="clipPath34"
       clipPathUnits="userSpaceOnUse"><path
         id="path32"
         d="M 0,133.493 H 504 V 0 H 0 Z" /></clipPath><clipPath
       id="clipPath40"
       clipPathUnits="userSpaceOnUse"><path
         id="path38"
         d="M 0,0 H 504 V 133.493 H 0 Z" /></clipPath><pattern
       id="pattern62"
       height="63.5394"
       width="63.5394"
       y="0"
       x="0"
       patternUnits="userSpaceOnUse"
       patternTransform="matrix(1.06695,-0.530895,0.461368,0.927221,-1909.13,-3360.38)"><g
         id="g56" /><g
         id="g60"><path
           id="path58"
           style="fill:#2da1da;fill-opacity:1;fill-rule:nonzero;stroke:none"
           d="M 63.539,0 0,0 l 0,63.539 63.539,0 0,-63.539 z" /></g></pattern><pattern
       id="pattern72"
       height="63.5394"
       width="63.5394"
       y="0"
       x="0"
       patternUnits="userSpaceOnUse"
       patternTransform="matrix(1.06695,-0.530895,0.461368,0.927221,-1909.13,-3360.38)"><g
         id="g66" /><g
         id="g70"><path
           id="path68"
           style="fill:#2da1da;fill-opacity:1;fill-rule:nonzero;stroke:none"
           d="M 63.539,0 0,0 l 0,63.539 63.539,0 0,-63.539 z" /></g></pattern><pattern
       id="pattern82"
       height="63.5394"
       width="63.5394"
       y="0"
       x="0"
       patternUnits="userSpaceOnUse"
       patternTransform="matrix(1.06695,-0.530895,0.461368,0.927221,-1909.13,-3360.38)"><g
         id="g76" /><g
         id="g80"><path
           id="path78"
           style="fill:#2da1da;fill-opacity:1;fill-rule:nonzero;stroke:none"
           d="M 63.539,0 0,0 l 0,63.539 63.539,0 0,-63.539 z" /></g></pattern><pattern
       id="pattern92"
       height="63.5394"
       width="63.5394"
       y="0"
       x="0"
       patternUnits="userSpaceOnUse"
       patternTransform="matrix(1.06695,-0.530895,0.461368,0.927221,-1909.13,-3360.38)"><g
         id="g86" /><g
         id="g90"><path
           id="path88"
           style="fill:#2da1da;fill-opacity:1;fill-rule:nonzero;stroke:none"
           d="M 63.539,0 0,0 l 0,63.539 63.539,0 0,-63.539 z" /></g></pattern><pattern
       id="pattern102"
       height="63.5394"
       width="63.5394"
       y="0"
       x="0"
       patternUnits="userSpaceOnUse"
       patternTransform="matrix(1.06695,-0.530895,0.461368,0.927221,-1909.13,-3360.38)"><g
         id="g96" /><g
         id="g100"><path
           id="path98"
           style="fill:#2da1da;fill-opacity:1;fill-rule:nonzero;stroke:none"
           d="M 63.539,0 0,0 l 0,63.539 63.539,0 0,-63.539 z" /></g></pattern><pattern
       id="pattern112"
       height="63.5394"
       width="63.5394"
       y="0"
       x="0"
       patternUnits="userSpaceOnUse"
       patternTransform="matrix(1.06695,-0.530895,0.461368,0.927221,-1909.13,-3360.38)"><g
         id="g106" /><g
         id="g110"><path
           id="path108"
           style="fill:#2da1da;fill-opacity:1;fill-rule:nonzero;stroke:none"
           d="M 63.539,0 0,0 l 0,63.539 63.539,0 0,-63.539 z" /></g></pattern></defs><g
     clip-path="url(#clipPath14)"
     transform="matrix(1.3333333,0,0,-1.3333333,-505.5912,112.2368)"
     id="g10"><g
       id="g16" /><g
       id="g18"><g
         clip-path="url(#clipPath24)"
         id="g20"><path
           id="path26"
           style="fill:#373535;fill-opacity:1;fill-rule:nonzero;stroke:none"
           d="m 246.3566,93.0527 h -17.008 v -48.084 h -2.59 v 48.084 h -17.008 v 2.31 h 36.606 z" /></g></g><g
       id="g28"><g
         clip-path="url(#clipPath34)"
         id="g30"><g
           clip-path="url(#clipPath40)"
           id="g36"><path
             id="path42"
             style="fill:#373535;fill-opacity:1;fill-rule:nonzero;stroke:none"
             d="m 243.7121,64.706 h 27.157 c -0.49,10.359 -6.299,15.608 -13.578,15.608 -7.209,0 -13.089,-5.459 -13.579,-15.608 m 29.117,-10.079 c -1.75,-6.579 -7.349,-10.708 -14.698,-10.708 -9.659,0 -17.008,6.929 -17.008,19.247 0,12.389 7.139,19.248 16.168,19.248 9.028,0 16.238,-6.439 16.238,-19.878 h -29.817 c 0.28,-11.268 6.649,-16.448 14.489,-16.448 5.879,0 10.498,3.08 11.968,8.539 z" /><path
             id="path44"
             style="fill:#373535;fill-opacity:1;fill-rule:nonzero;stroke:none"
             d="m 284.0793,79.1943 v -27.576 c 0,-3.85 2.03,-5.6 5.18,-5.6 1.33,0 2.66,0.14 4.479,0.63 v -2.1 c -1.609,-0.419 -3.079,-0.629 -4.479,-0.629 -4.69,0 -7.7,2.519 -7.7,7.768 v 27.507 h -5.249 v 2.17 h 5.249 l 0.281,8.749 h 2.239 v -8.749 h 8.68 v -2.17 z" /><path
             id="path46"
             style="fill:#373535;fill-opacity:1;fill-rule:nonzero;stroke:none"
             d="m 299.3186,44.9687 v 36.396 h 2.029 l 0.42,-7.7 c 1.89,6.09 5.88,8.749 10.639,8.749 1.33,0 2.8,-0.279 3.64,-0.559 v -2.45 c -1.19,0.35 -2.45,0.629 -3.85,0.629 -5.599,0 -10.358,-5.878 -10.358,-14.488 v -20.577 z" /><path
             id="path48"
             style="fill:#373535;fill-opacity:1;fill-rule:nonzero;stroke:none"
             d="m 342.8352,65.4062 -10.079,-1.68 c -9.659,-1.61 -12.459,-4.62 -12.459,-9.449 0,-5.529 4.269,-8.189 10.149,-8.189 6.089,0 12.389,4.69 12.389,11.689 z m -23.937,6.859 c 0.559,6.02 5.949,10.149 13.508,10.149 7.559,0 12.949,-4.339 12.949,-11.689 v -25.756 h -2.03 l -0.421,6.508 c -2.169,-3.989 -6.438,-7.558 -13.158,-7.558 -6.719,0 -12.038,3.569 -12.038,10.218 0,6.089 3.709,9.799 14.068,11.549 l 11.059,1.82 v 3.71 c 0,5.529 -3.99,9.098 -10.569,9.098 -6.089,0 -10.359,-3.359 -10.849,-8.049 z" /><path
             id="path50"
             style="fill:#373535;fill-opacity:1;fill-rule:nonzero;stroke:none"
             d="m 357.4582,79.1943 v -27.576 c 0,-3.85 2.03,-5.6 5.18,-5.6 1.33,0 2.66,0.14 4.479,0.63 v -2.1 c -1.609,-0.419 -3.079,-0.629 -4.479,-0.629 -4.69,0 -7.7,2.519 -7.7,7.768 v 27.507 h -5.249 v 2.17 h 5.249 l 0.281,8.749 h 2.239 v -8.749 h 8.68 v -2.17 z" /><path
             id="path52"
             style="fill:#373535;fill-opacity:1;fill-rule:nonzero;stroke:none"
             d="m 372.508,81.364 h 2.52 V 44.968 h -2.52 z m -0.351,13.998 h 3.22 v -3.989 h -3.22 z" /><path
             id="path54"
             style="fill:#373535;fill-opacity:1;fill-rule:nonzero;stroke:none"
             d="m 423.8147,44.9687 v 36.396 h 2.1 l 0.349,-6.929 c 2.38,5.179 7.28,7.978 12.53,7.978 7.558,0 12.458,-4.758 12.458,-12.248 v -25.197 h -2.52 v 25.057 c 0,6.369 -3.85,10.289 -10.499,10.289 -5.669,0 -11.898,-4.9 -11.898,-12.669 v -22.677 z" /><path
             id="path64"
             style="fill:url(#pattern62);fill-opacity:1;fill-rule:nonzero;stroke:none"
             d="m 395.6425,77.1085 c -0.43,-0.118 -0.906,-0.356 -1.375,-0.558 -0.486,-0.192 -0.912,-0.469 -1.368,-0.722 -0.902,-0.525 -1.755,-1.19 -2.573,-1.933 -1.619,-1.508 -2.943,-3.492 -3.784,-5.738 -0.12,-0.276 -0.203,-0.565 -0.283,-0.857 -0.083,-0.291 -0.167,-0.582 -0.25,-0.875 -0.055,-0.299 -0.111,-0.599 -0.166,-0.9 -0.047,-0.234 -0.084,-0.469 -0.107,-0.707 0.139,0.025 0.282,0.039 0.427,0.039 0.157,0 0.316,-0.015 0.476,-0.047 0.073,-0.015 0.139,-0.044 0.209,-0.065 0.028,0.194 0.063,0.386 0.105,0.576 0.057,0.277 0.114,0.553 0.171,0.828 0.083,0.268 0.166,0.535 0.249,0.802 0.08,0.266 0.161,0.532 0.278,0.783 0.822,2.05 2.074,3.84 3.579,5.179 0.761,0.659 1.548,1.247 2.375,1.704 0.417,0.218 0.819,0.469 1.233,0.618 0.416,0.165 0.783,0.357 1.247,0.476 0.117,0.038 0.229,0.062 0.345,0.096 -0.239,0.449 -0.33,0.953 -0.259,1.46 -0.177,-0.055 -0.353,-0.097 -0.529,-0.159" /><path
             id="path74"
             style="fill:url(#pattern72);fill-opacity:1;fill-rule:nonzero;stroke:none"
             d="m 407.8484,50.8656 c -0.986,-0.587 -2.089,-1.052 -3.252,-1.394 0.049,-0.154 0.081,-0.31 0.098,-0.47 1.207,0.38 2.344,0.887 3.363,1.523 1.821,1.137 3.248,2.63 4.285,4.17 1.034,1.548 1.698,3.144 2.047,4.609 0.098,0.363 0.143,0.727 0.213,1.071 0.029,0.173 0.068,0.341 0.087,0.509 0.015,0.169 0.029,0.334 0.042,0.496 0.024,0.325 0.062,0.635 0.07,0.933 -0.005,0.297 -0.009,0.582 -0.013,0.851 0.014,0.54 -0.08,1.016 -0.119,1.432 -0.033,0.418 -0.115,0.765 -0.18,1.046 -0.124,0.563 -0.19,0.863 -0.19,0.863 0,0 0.059,-0.302 0.172,-0.868 0.058,-0.282 0.132,-0.63 0.157,-1.047 0.029,-0.416 0.112,-0.891 0.086,-1.428 -0.002,-0.268 -0.004,-0.551 -0.006,-0.847 -0.013,-0.295 -0.059,-0.603 -0.089,-0.924 -0.017,-0.16 -0.034,-0.324 -0.052,-0.491 -0.023,-0.166 -0.066,-0.333 -0.098,-0.503 -0.077,-0.339 -0.129,-0.698 -0.234,-1.055 -0.377,-1.441 -1.067,-2.999 -2.115,-4.495 -1.051,-1.488 -2.478,-2.915 -4.272,-3.981" /><path
             id="path84"
             style="fill:url(#pattern82);fill-opacity:1;fill-rule:nonzero;stroke:none"
             d="m 390.0786,61.4782 c 0.017,-0.222 0.08,-0.436 0.125,-0.653 0.053,-0.226 0.086,-0.414 0.158,-0.671 l 0.202,-0.605 0.101,-0.303 0.138,-0.313 0.282,-0.626 c 0.103,-0.201 0.221,-0.39 0.331,-0.586 0.009,-0.017 0.021,-0.032 0.031,-0.049 0.2,0.236 0.444,0.429 0.718,0.574 -0.083,0.155 -0.17,0.308 -0.245,0.465 l -0.227,0.55 -0.114,0.274 -0.091,0.306 -0.183,0.611 c -0.035,0.153 -0.074,0.384 -0.112,0.571 -0.034,0.198 -0.087,0.393 -0.094,0.594 -0.171,1.586 0.019,3.19 0.606,4.586 0.301,0.737 0.687,1.42 1.132,2.038 -0.379,0.185 -0.709,0.459 -0.949,0.82 -0.003,0.004 -0.004,0.008 -0.007,0.012 -0.516,-0.745 -0.957,-1.564 -1.284,-2.448 -0.608,-1.592 -0.766,-3.395 -0.518,-5.147" /><path
             id="path94"
             style="fill:url(#pattern92);fill-opacity:1;fill-rule:nonzero;stroke:none"
             d="m 386.1776,59.0298 0.286,-0.869 0.143,-0.436 0.193,-0.441 0.392,-0.882 c 0.145,-0.284 0.31,-0.553 0.464,-0.83 0.291,-0.565 0.696,-1.058 1.053,-1.58 0.799,-0.978 1.666,-1.915 2.685,-2.657 0.481,-0.408 1.033,-0.713 1.555,-1.055 0.267,-0.162 0.553,-0.29 0.828,-0.435 0.278,-0.14 0.55,-0.291 0.844,-0.393 1.707,-0.713 3.52,-1.11 5.303,-1.157 -0.037,0.194 -0.041,0.391 -0.029,0.59 -1.692,0.088 -3.398,0.506 -4.992,1.211 -0.277,0.103 -0.533,0.253 -0.794,0.392 -0.258,0.145 -0.527,0.271 -0.777,0.43 -0.489,0.338 -1.006,0.636 -1.452,1.034 -0.95,0.721 -1.746,1.626 -2.478,2.561 -0.325,0.5 -0.697,0.969 -0.956,1.507 -0.139,0.262 -0.289,0.52 -0.418,0.784 l -0.337,0.807 -0.17,0.401 -0.133,0.439 -0.267,0.875 c -0.059,0.238 -0.112,0.554 -0.169,0.828 -0.248,-0.086 -0.511,-0.135 -0.785,-0.135 -0.073,0 -0.148,0.015 -0.222,0.021 0.005,-0.023 0.011,-0.046 0.015,-0.07 0.074,-0.315 0.121,-0.594 0.218,-0.94" /><path
             id="path104"
             style="fill:url(#pattern102);fill-opacity:1;fill-rule:nonzero;stroke:none"
             d="m 419.5214,63.197 c 0.019,0.715 -0.106,1.345 -0.157,1.896 -0.044,0.552 -0.153,1.011 -0.238,1.383 -0.164,0.745 -0.252,1.142 -0.252,1.142 0,0 0.079,-0.399 0.228,-1.148 0.077,-0.373 0.175,-0.833 0.208,-1.386 0.038,-0.551 0.148,-1.179 0.113,-1.891 -0.002,-0.354 -0.004,-0.728 -0.007,-1.12 -0.018,-0.391 -0.078,-0.798 -0.118,-1.223 -0.023,-0.213 -0.046,-0.429 -0.069,-0.65 -0.03,-0.22 -0.087,-0.44 -0.13,-0.666 -0.102,-0.449 -0.171,-0.924 -0.31,-1.397 -0.499,-1.906 -1.413,-3.97 -2.8,-5.949 -1.39,-1.97 -3.28,-3.859 -5.654,-5.27 -2.359,-1.404 -5.19,-2.345 -8.173,-2.581 -2.983,-0.272 -6.109,0.299 -8.962,1.563 -0.368,0.135 -0.706,0.335 -1.052,0.519 -0.342,0.191 -0.698,0.358 -1.029,0.569 -0.646,0.446 -1.331,0.841 -1.921,1.367 -1.258,0.956 -2.311,2.154 -3.281,3.391 -0.43,0.662 -0.922,1.283 -1.265,1.994 -0.184,0.347 -0.383,0.689 -0.554,1.039 l -0.446,1.067 -0.224,0.531 -0.177,0.581 -0.353,1.158 c -0.079,0.321 -0.15,0.748 -0.226,1.114 -0.067,0.382 -0.173,0.757 -0.189,1.144 -0.068,0.77 -0.172,1.532 -0.132,2.298 0.01,0.381 -0.012,0.763 0.024,1.141 0.039,0.377 0.08,0.754 0.12,1.128 0.025,0.378 0.1,0.746 0.182,1.112 0.076,0.366 0.151,0.732 0.226,1.096 0.11,0.355 0.221,0.709 0.33,1.061 0.105,0.353 0.213,0.705 0.368,1.037 1.087,2.713 2.745,5.083 4.737,6.856 1.007,0.872 2.049,1.65 3.144,2.254 0.552,0.289 1.084,0.621 1.632,0.818 0.551,0.219 1.037,0.474 1.651,0.631 2.239,0.726 4.35,0.988 6.228,0.891 1.866,-0.099 3.486,-0.384 4.753,-0.832 0.315,-0.107 0.633,-0.179 0.896,-0.297 0.266,-0.113 0.516,-0.218 0.748,-0.316 0.164,-0.069 0.307,-0.129 0.453,-0.19 l -1.179,-2.37 c -0.108,0.045 -0.227,0.096 -0.345,0.143 -0.211,0.085 -0.438,0.174 -0.68,0.271 -0.242,0.099 -0.502,0.154 -0.775,0.239 -1.082,0.352 -2.46,0.569 -4.037,0.615 -0.028,0.001 -0.059,-0.003 -0.087,-0.002 0.213,-0.452 0.295,-0.97 0.19,-1.497 -0.006,-0.029 -0.018,-0.056 -0.025,-0.086 1.36,-0.08 2.546,-0.29 3.476,-0.619 0.238,-0.08 0.479,-0.135 0.677,-0.224 0.201,-0.085 0.39,-0.165 0.565,-0.239 0.097,-0.04 0.196,-0.082 0.286,-0.119 v 0 l -1.179,-2.37 c -0.026,0.01 -0.047,0.019 -0.073,0.029 -0.305,0.124 -0.656,0.267 -1.046,0.364 -0.773,0.249 -1.757,0.4 -2.882,0.43 -1.121,0.031 -2.415,-0.169 -3.687,-0.618 -0.295,-0.083 -0.642,-0.254 -0.977,-0.401 -0.231,-0.092 -0.441,-0.21 -0.65,-0.332 0.187,-0.152 0.36,-0.324 0.497,-0.53 0.135,-0.201 0.225,-0.421 0.294,-0.646 0.143,0.075 0.285,0.144 0.428,0.194 0.282,0.111 0.522,0.237 0.85,0.32 1.163,0.368 2.242,0.496 3.207,0.439 0.958,-0.058 1.787,-0.208 2.434,-0.442 0.337,-0.095 0.602,-0.217 0.834,-0.317 0.006,-0.002 0.01,-0.004 0.016,-0.007 l -1.184,-2.379 c -0.148,0.055 -0.294,0.114 -0.463,0.154 -0.464,0.142 -1.054,0.227 -1.725,0.234 -0.666,0.011 -1.447,-0.119 -2.184,-0.393 -0.159,-0.046 -0.384,-0.158 -0.582,-0.246 -0.213,-0.089 -0.386,-0.208 -0.579,-0.318 -0.376,-0.229 -0.732,-0.514 -1.071,-0.833 -0.668,-0.646 -1.211,-1.486 -1.547,-2.431 -0.344,-0.942 -0.425,-2.003 -0.266,-3.029 0.011,-0.129 0.051,-0.255 0.078,-0.382 0.034,-0.135 0.05,-0.234 0.1,-0.399 l 0.119,-0.341 0.059,-0.171 0.084,-0.186 0.171,-0.37 0.198,-0.34 c 0.123,-0.231 0.294,-0.431 0.444,-0.644 0.659,-0.807 1.512,-1.45 2.454,-1.821 0.94,-0.374 1.951,-0.515 2.896,-0.393 0.946,0.112 1.814,0.44 2.544,0.912 0.724,0.47 1.286,1.079 1.689,1.7 0.403,0.625 0.656,1.265 0.785,1.849 0.121,0.586 0.164,1.107 0.133,1.533 -0.023,0.425 -0.076,0.757 -0.135,0.976 -0.052,0.221 -0.08,0.339 -0.08,0.339 0,0 0.022,-0.12 0.062,-0.343 0.045,-0.221 0.078,-0.554 0.078,-0.974 0.008,-0.421 -0.064,-0.93 -0.213,-1.491 -0.157,-0.56 -0.436,-1.162 -0.853,-1.736 -0.418,-0.571 -0.98,-1.112 -1.677,-1.511 -0.689,-0.395 -1.52,-0.655 -2.381,-0.708 -0.862,-0.063 -1.757,0.117 -2.567,0.493 -0.812,0.374 -1.52,0.979 -2.044,1.699 -0.246,0.366 -0.482,0.77 -0.616,1.16 l -0.059,0.146 -0.05,0.173 -0.099,0.346 c -0.029,0.174 -0.084,0.418 -0.102,0.624 -0.082,0.86 0.032,1.723 0.356,2.47 0.316,0.749 0.787,1.394 1.343,1.874 0.283,0.234 0.571,0.442 0.874,0.603 0.153,0.073 0.303,0.167 0.445,0.212 0.151,0.055 0.256,0.117 0.449,0.164 0.637,0.195 1.197,0.249 1.709,0.214 0.505,-0.036 0.94,-0.121 1.279,-0.248 0.074,-0.022 0.136,-0.046 0.196,-0.07 l -1.193,-2.397 c -0.126,0.023 -0.255,0.039 -0.388,0.039 -1.197,0 -2.168,-0.97 -2.168,-2.167 0,-1.197 0.971,-2.167 2.168,-2.167 1.197,0 2.167,0.97 2.167,2.167 0,0.536 -0.202,1.02 -0.524,1.398 l 5.079,10.231 2.96,5.962 -1.099,0.5 c -0.236,0.111 -0.462,0.212 -0.734,0.322 -0.28,0.112 -0.58,0.231 -0.9,0.358 -0.321,0.131 -0.664,0.204 -1.026,0.317 -1.432,0.466 -3.257,0.754 -5.344,0.814 -2.083,0.065 -4.481,-0.296 -6.863,-1.127 -0.569,-0.157 -1.199,-0.471 -1.819,-0.738 -0.644,-0.254 -1.207,-0.621 -1.812,-0.957 -1.193,-0.695 -2.323,-1.575 -3.406,-2.559 -2.142,-1.995 -3.895,-4.622 -5.008,-7.595 -0.159,-0.364 -0.268,-0.747 -0.375,-1.133 -0.11,-0.385 -0.22,-0.771 -0.331,-1.158 -0.073,-0.397 -0.146,-0.794 -0.22,-1.193 -0.078,-0.397 -0.15,-0.797 -0.17,-1.206 -0.034,-0.406 -0.068,-0.813 -0.103,-1.222 -0.028,-0.409 0.002,-0.82 0.001,-1.232 -0.022,-0.825 0.104,-1.645 0.197,-2.469 0.03,-0.415 0.148,-0.816 0.23,-1.223 0.097,-0.418 0.16,-0.788 0.288,-1.245 l 0.378,-1.151 0.189,-0.577 0.257,-0.584 0.518,-1.167 c 0.192,-0.375 0.41,-0.732 0.615,-1.098 0.384,-0.748 0.92,-1.401 1.393,-2.091 1.058,-1.296 2.205,-2.536 3.554,-3.517 0.636,-0.541 1.367,-0.945 2.058,-1.397 0.354,-0.215 0.733,-0.384 1.096,-0.576 0.368,-0.186 0.728,-0.386 1.117,-0.521 3.026,-1.263 6.306,-1.78 9.399,-1.431 3.094,0.316 5.975,1.346 8.388,2.852 2.41,1.505 4.299,3.482 5.671,5.52 1.369,2.048 2.248,4.161 2.71,6.1 0.13,0.481 0.189,0.962 0.282,1.417 0.038,0.229 0.09,0.452 0.116,0.675 0.019,0.223 0.037,0.442 0.055,0.657 0.031,0.429 0.083,0.84 0.092,1.234 -0.006,0.394 -0.011,0.77 -0.017,1.127" /><path
             id="path114"
             style="fill:url(#pattern112);fill-opacity:1;fill-rule:nonzero;stroke:none"
             d="m 410.223,64.8015 c 0.039,-0.196 0.09,-0.438 0.106,-0.73 0.019,-0.29 0.075,-0.62 0.055,-0.995 -0.002,-0.186 -0.005,-0.383 -0.007,-0.589 -0.01,-0.205 -0.043,-0.419 -0.065,-0.643 -0.021,-0.223 -0.05,-0.455 -0.109,-0.691 -0.055,-0.236 -0.092,-0.484 -0.166,-0.733 -0.267,-1 -0.753,-2.081 -1.485,-3.115 -0.735,-1.029 -1.73,-2.014 -2.976,-2.746 -1.236,-0.728 -2.721,-1.213 -4.279,-1.328 -1.558,-0.134 -3.187,0.174 -4.67,0.84 -0.19,0.071 -0.366,0.177 -0.546,0.273 -0.177,0.101 -0.363,0.187 -0.534,0.299 -0.076,0.053 -0.154,0.105 -0.231,0.156 -0.141,-0.216 -0.312,-0.41 -0.511,-0.57 0.12,-0.075 0.241,-0.15 0.36,-0.226 0.188,-0.114 0.391,-0.203 0.585,-0.305 0.196,-0.097 0.388,-0.203 0.595,-0.274 1.613,-0.664 3.357,-0.932 4.999,-0.74 1.643,0.174 3.166,0.727 4.442,1.532 1.273,0.804 2.268,1.854 2.989,2.935 0.718,1.086 1.177,2.205 1.417,3.229 0.067,0.254 0.097,0.509 0.145,0.749 0.051,0.24 0.073,0.476 0.087,0.703 0.015,0.227 0.041,0.443 0.045,0.651 -0.004,0.208 -0.008,0.406 -0.011,0.594 0.008,0.378 -0.059,0.709 -0.087,0.999 -0.025,0.291 -0.084,0.533 -0.129,0.729 -0.089,0.391 -0.136,0.6 -0.136,0.6 0,0 0.041,-0.21 0.117,-0.604" /><path
             id="path116"
             style="fill:#2db055;fill-opacity:1;fill-rule:nonzero;stroke:none"
             d="m 395.5735,70.0693 c -0.185,-0.924 -1.083,-1.524 -2.008,-1.339 -0.924,0.184 -1.523,1.083 -1.339,2.007 0.185,0.925 1.084,1.524 2.008,1.34 0.924,-0.185 1.524,-1.084 1.339,-2.008" /><path
             id="path118"
             style="fill:#2db055;fill-opacity:1;fill-rule:nonzero;stroke:none"
             d="m 394.9636,55.7772 c -0.185,-0.924 -1.083,-1.524 -2.008,-1.339 -0.924,0.184 -1.523,1.083 -1.339,2.007 0.185,0.925 1.084,1.524 2.008,1.34 0.924,-0.185 1.524,-1.084 1.339,-2.008" /><path
             id="path120"
             style="fill:#2db055;fill-opacity:1;fill-rule:nonzero;stroke:none"
             d="m 403.9732,48.4096 c -0.185,-0.924 -1.083,-1.524 -2.008,-1.339 -0.924,0.184 -1.523,1.083 -1.339,2.007 0.185,0.925 1.084,1.524 2.008,1.34 0.924,-0.185 1.524,-1.084 1.339,-2.008" /><path
             id="path122"
             style="fill:#2db055;fill-opacity:1;fill-rule:nonzero;stroke:none"
             d="m 387.8387,62.1034 c -0.185,-0.924 -1.083,-1.524 -2.008,-1.339 -0.924,0.184 -1.523,1.083 -1.339,2.007 0.185,0.925 1.084,1.524 2.008,1.34 0.924,-0.185 1.524,-1.084 1.339,-2.008" /><path
             id="path124"
             style="fill:#2db055;fill-opacity:1;fill-rule:nonzero;stroke:none"
             d="m 400.2315,76.6009 c -0.185,-0.924 -1.083,-1.524 -2.008,-1.339 -0.924,0.184 -1.523,1.083 -1.339,2.007 0.185,0.925 1.084,1.524 2.008,1.34 0.924,-0.185 1.524,-1.084 1.339,-2.008" /><path
             id="path126"
             style="fill:#373535;fill-opacity:1;fill-rule:nonzero;stroke:none"
             d="m 40.5915,69.6035 c 0,17.362 9.871,26.813 22.332,26.813 10.431,0 18.622,-5.39 20.372,-15.822 h -2.52 c -1.89,9.031 -8.681,13.512 -17.852,13.512 -11.061,0 -19.672,-8.821 -19.672,-24.503 0,-14.421 8.611,-23.382 19.952,-23.382 9.381,0 16.102,5.46 17.432,15.051 h 2.59 c -1.26,-9.87 -8.681,-17.361 -20.022,-17.361 -13.371,0 -22.612,10.22 -22.612,25.692" /><path
             id="path128"
             style="fill:#373535;fill-opacity:1;fill-rule:nonzero;stroke:none"
             d="m 90.095,81.365 h 2.52 V 44.961 h -2.52 z m -0.35,14.001 h 3.22 v -3.99 h -3.22 z" /><path
             id="path130"
             style="fill:#373535;fill-opacity:1;fill-rule:nonzero;stroke:none"
             d="m 111.8239,63.0927 c -6.861,1.051 -11.761,4.061 -11.761,9.941 0,5.111 4.2,9.381 12.881,9.381 7.351,0 12.881,-3.92 13.932,-9.801 h -2.661 c -0.56,4.34 -5.25,7.701 -11.481,7.701 -6.931,0 -10.081,-3.29 -10.081,-7.071 0,-4.48 2.8,-6.72 10.921,-8.121 9.661,-1.679 13.441,-4.759 13.441,-10.571 0,-5.46 -5.18,-10.641 -13.861,-10.641 -8.331,0 -13.301,4.341 -14.211,10.362 h 2.66 c 0.49,-4.761 4.901,-8.192 11.621,-8.192 7.211,0 11.131,4.061 11.131,8.402 0,4.83 -3.5,7.211 -12.531,8.61" /><path
             id="path132"
             style="fill:#373535;fill-opacity:1;fill-rule:nonzero;stroke:none"
             d="m 162.7429,55.2519 c -1.19,-6.65 -6.931,-11.341 -14.631,-11.341 -8.821,0 -15.752,6.511 -15.752,18.972 0,13.162 7.351,19.532 15.892,19.532 7.56,0 13.091,-4.341 14.281,-10.851 h -2.66 c -0.91,5.25 -5.461,8.75 -11.551,8.75 -7.421,0 -13.442,-5.669 -13.442,-17.571 0,-11.411 6.161,-16.662 13.372,-16.662 6.16,0 10.991,3.851 11.901,9.171 z" /><path
             id="path134"
             style="fill:#373535;fill-opacity:1;fill-rule:nonzero;stroke:none"
             d="m 184.2106,46.0117 c 7.911,0 13.651,5.74 13.651,17.151 0,11.482 -5.74,17.152 -13.651,17.152 -7.911,0 -13.721,-5.741 -13.721,-17.152 0,-11.411 6.02,-17.151 13.721,-17.151 m 0,36.403 c 9.521,0 16.242,-6.65 16.242,-19.252 0,-12.671 -6.861,-19.252 -16.102,-19.252 -9.311,0 -16.452,6.721 -16.452,19.252 0,12.671 7.001,19.252 16.312,19.252" /><path
             id="path136"
             style="fill:#373535;fill-opacity:1;fill-rule:nonzero;stroke:none"
             d="m 40.592,69.6943 c 0,17.361 9.871,26.812 22.332,26.812 10.431,0 18.622,-5.39 20.372,-15.821 h -2.52 c -1.89,9.03 -8.681,13.511 -17.852,13.511 -11.061,0 -19.672,-8.82 -19.672,-24.502 0,-14.422 8.611,-23.383 19.952,-23.383 9.381,0 16.102,5.461 17.432,15.052 h 2.59 c -1.26,-9.871 -8.681,-17.362 -20.022,-17.362 -13.371,0 -22.612,10.221 -22.612,25.693" /><path
             id="path138"
             style="fill:#373535;fill-opacity:1;fill-rule:nonzero;stroke:none"
             d="m 90.096,81.455 h 2.52 V 45.052 h -2.52 z m -0.35,14.002 h 3.22 v -3.99 h -3.22 z" /><path
             id="path140"
             style="fill:#373535;fill-opacity:1;fill-rule:nonzero;stroke:none"
             d="m 111.8244,63.1835 c -6.861,1.05 -11.761,4.061 -11.761,9.94 0,5.112 4.2,9.382 12.881,9.382 7.351,0 12.881,-3.921 13.932,-9.801 h -2.661 c -0.56,4.34 -5.25,7.701 -11.481,7.701 -6.931,0 -10.081,-3.29 -10.081,-7.072 0,-4.48 2.8,-6.72 10.921,-8.12 9.661,-1.68 13.441,-4.76 13.441,-10.571 0,-5.461 -5.18,-10.642 -13.861,-10.642 -8.331,0 -13.301,4.341 -14.211,10.362 h 2.66 c 0.49,-4.761 4.901,-8.191 11.621,-8.191 7.211,0 11.131,4.061 11.131,8.401 0,4.831 -3.5,7.211 -12.531,8.611" /><path
             id="path142"
             style="fill:#373535;fill-opacity:1;fill-rule:nonzero;stroke:none"
             d="m 162.7434,55.3427 c -1.19,-6.651 -6.931,-11.342 -14.631,-11.342 -8.821,0 -15.752,6.511 -15.752,18.973 0,13.161 7.351,19.532 15.892,19.532 7.56,0 13.091,-4.341 14.281,-10.851 h -2.66 c -0.91,5.25 -5.461,8.75 -11.551,8.75 -7.421,0 -13.442,-5.67 -13.442,-17.572 0,-11.411 6.161,-16.661 13.372,-16.661 6.16,0 10.991,3.851 11.901,9.171 z" /><path
             id="path144"
             style="fill:#373535;fill-opacity:1;fill-rule:nonzero;stroke:none"
             d="m 184.2111,46.1015 c 7.911,0 13.651,5.74 13.651,17.151 0,11.482 -5.74,17.153 -13.651,17.153 -7.911,0 -13.721,-5.741 -13.721,-17.153 0,-11.411 6.02,-17.151 13.721,-17.151 m 0,36.404 c 9.521,0 16.242,-6.651 16.242,-19.253 0,-12.671 -6.861,-19.252 -16.102,-19.252 -9.311,0 -16.452,6.721 -16.452,19.252 0,12.672 7.001,19.253 16.312,19.253" /><path
             id="path146"
             style="fill:#373535;fill-opacity:1;fill-rule:nonzero;stroke:none"
             d="m 459.9558,83.1367 -1.617,4.867 v -4.867 h -0.817 v 4.998 h -2.054 v -4.998 h -0.874 v 4.998 h -1.924 v 0.773 h 6.237 l 1.515,-4.678 1.458,4.678 h 1.355 v -5.771 h -0.845 v 4.867 l -1.545,-4.867 z" /><path
             id="path148"
             style="fill:#2db055;fill-opacity:1;fill-rule:nonzero;stroke:none"
             d="m 395.5811,70.069 c -0.148,-0.739 -0.867,-1.219 -1.606,-1.071 -0.739,0.147 -1.219,0.866 -1.071,1.606 0.147,0.739 0.866,1.219 1.606,1.071 0.739,-0.148 1.219,-0.867 1.071,-1.606" /><path
             id="path150"
             style="fill:#2db055;fill-opacity:1;fill-rule:nonzero;stroke:none"
             d="m 394.9713,55.7769 c -0.148,-0.739 -0.867,-1.219 -1.606,-1.071 -0.74,0.147 -1.219,0.866 -1.071,1.606 0.147,0.739 0.866,1.219 1.606,1.071 0.739,-0.148 1.219,-0.867 1.071,-1.606" /><path
             id="path152"
             style="fill:#2db055;fill-opacity:1;fill-rule:nonzero;stroke:none"
             d="m 403.9809,48.4092 c -0.148,-0.739 -0.867,-1.219 -1.606,-1.071 -0.739,0.147 -1.219,0.866 -1.071,1.606 0.147,0.739 0.866,1.219 1.606,1.071 0.739,-0.148 1.219,-0.867 1.071,-1.606" /><path
             id="path154"
             style="fill:#2db055;fill-opacity:1;fill-rule:nonzero;stroke:none"
             d="m 387.8464,62.1031 c -0.148,-0.739 -0.867,-1.219 -1.606,-1.071 -0.739,0.147 -1.219,0.866 -1.071,1.606 0.147,0.739 0.866,1.219 1.606,1.071 0.739,-0.148 1.219,-0.867 1.071,-1.606" /><path
             id="path156"
             style="fill:#2db055;fill-opacity:1;fill-rule:nonzero;stroke:none"
             d="m 400.2391,76.6006 c -0.148,-0.739 -0.867,-1.219 -1.606,-1.071 -0.74,0.147 -1.219,0.866 -1.071,1.606 0.147,0.739 0.866,1.219 1.606,1.071 0.739,-0.148 1.219,-0.867 1.071,-1.606" /></g></g></g></g></svg>